<svg width="97" height="52" viewBox="0 0 97 52" xmlns="http://www.w3.org/2000/svg">
    <g stroke="#0D2B2A" fill="none" fill-rule="evenodd">
        <path d="M1 7.867h18.435v18.26H1zM1 26.129h18.435v18.26H1z"/>
        <path d="M19.433 26.129H48.8v18.26H19.433zM19.433 7.867H48.8v18.26H19.433zM19.431 44.387H1.002l.914 6.861h16.608zM19.433 7.867H48.8L47.895 1H20.347zM67.774 44.387H48.8l.908 6.867H66.86zM48.8 7.867h18.98v18.26H48.8z"/>
        <path d="M48.8 26.127h18.98v18.26H48.8zM67.774 7.859H96L95.094 1H68.688z"/>
        <path d="M67.774 26.119H96v18.26H67.774zM67.774 7.859H96v18.26H67.774z"/>
    </g>
</svg>
