<svg xmlns="http://www.w3.org/2000/svg" width="317.688" height="81" viewBox="0 0 317.688 81">
  <g id="Group_1" data-name="Group 1" transform="translate(-229 -160)">
    <g id="Layer_2" data-name="Layer 2" transform="translate(229 160)">
      <g id="Layer_2-2" data-name="Layer 2" transform="translate(0 0)">
        <path id="Path_1" data-name="Path 1" d="M227,64.415V3.269a3.158,3.158,0,0,1,6.312,0V31.412L256.7,14.519a3.166,3.166,0,1,1,3.693,5.144l-12.454,9.259,13.529,34.352a3.158,3.158,0,0,1-1.816,4.079,3.2,3.2,0,0,1-1.126.206,3.153,3.153,0,0,1-2.948-2.027l-12.968-32.6L233.3,39.858V64.415a3.158,3.158,0,0,1-6.3,0Z" transform="translate(-110.231 -0.238)" fill="#fff"/>
        <path id="Path_2" data-name="Path 2" d="M0,91.064V42.587A15.8,15.8,0,0,1,15.777,26.81h.787A15.8,15.8,0,0,1,32.34,42.587V64.675A15.8,15.8,0,0,1,16.564,80.452h-.787a15.663,15.663,0,0,1-9.465-3.189v13.8a3.158,3.158,0,0,1-6.312,0ZM6.312,64.675a9.475,9.475,0,0,0,9.465,9.465h.787a9.48,9.48,0,0,0,9.47-9.465V42.587a9.48,9.48,0,0,0-9.47-9.465h-.787a9.475,9.475,0,0,0-9.465,9.465Z" transform="translate(0 -13.141)" fill="#fff"/>
        <path id="Path_3" data-name="Path 3" d="M75.191,41.675c0-8.23,7.371-14.835,15.735-14.835h1.641a15.8,15.8,0,0,1,15.777,15.777V64.7A15.792,15.792,0,0,1,92.567,80.476H90.937A15.792,15.792,0,0,1,75.16,64.7V60.137c0-9.095,3.807-11.831,15.828-11.831h11.044V42.617a9.475,9.475,0,0,0-9.465-9.465H90.937c-4.928,0-9.429,3.817-9.429,8.606v.031a3.225,3.225,0,0,1-3.164,3.138,3.153,3.153,0,0,1-3.153-3.153Zm26.831,12.942H90.978c-5.144,0-6.759.324-8.153,1.641s-1.667,5.458-1.363,8.441c.514,5.2,4.244,9.47,9.465,9.47h1.641a9.48,9.48,0,0,0,9.465-9.47Z" transform="translate(-36.498 -13.156)" fill="#fff"/>
        <path id="Path_4" data-name="Path 4" d="M184.209,65.441a15.808,15.808,0,0,1-15.766,15.036h-.756A15.792,15.792,0,0,1,151.91,64.7V42.617A15.8,15.8,0,0,1,167.687,26.84h.756a15.818,15.818,0,0,1,15.771,14.918v.082a3.174,3.174,0,0,1-6.343.057v-.154a9.475,9.475,0,0,0-9.424-8.606h-.756a9.475,9.475,0,0,0-9.465,9.465V64.684a9.48,9.48,0,0,0,9.465,9.47h.756a9.491,9.491,0,0,0,9.45-8.719v-.2a3.153,3.153,0,1,1,6.307,0Z" transform="translate(-73.768 -13.156)" fill="#fff"/>
        <path id="Path_5" data-name="Path 5" d="M184.209,65.441a15.808,15.808,0,0,1-15.766,15.036h-.756A15.792,15.792,0,0,1,151.91,64.7V42.617A15.8,15.8,0,0,1,167.687,26.84h.756a15.818,15.818,0,0,1,15.771,14.918v.082a3.174,3.174,0,0,1-6.343.057v-.154a9.475,9.475,0,0,0-9.424-8.606h-.756a9.475,9.475,0,0,0-9.465,9.465V64.684a9.48,9.48,0,0,0,9.465,9.47h.756a9.491,9.491,0,0,0,9.45-8.719v-.2a3.153,3.153,0,1,1,6.307,0Z" transform="translate(-73.768 -13.156)" fill="#fff"/>
        <path id="Path_6" data-name="Path 6" d="M305.1,77.333V42.617A15.8,15.8,0,0,1,320.877,26.84h.633a15.8,15.8,0,0,1,15.777,15.777V77.333a3.158,3.158,0,0,1-6.312,0V42.617a9.475,9.475,0,0,0-9.465-9.465H320.9a9.475,9.475,0,0,0-9.465,9.465V77.333a3.158,3.158,0,0,1-6.312,0Z" transform="translate(-148.157 -13.156)" fill="#fff"/>
        <path id="Path_7" data-name="Path 7" d="M404.543,41.758a9.475,9.475,0,0,0-9.429-8.606H393.8a9.475,9.475,0,0,0-9.465,9.465c0,5.273,2.186,6.456,10.53,8.076,7.027,1.368,16.029,3.241,16.029,14.007a15.787,15.787,0,0,1-15.777,15.777H393.8c-8.405,0-15.746-6.312-15.746-14.918V65.43a3.158,3.158,0,0,1,6.312,0V65.5A9.506,9.506,0,0,0,393.8,74.2h1.317a9.48,9.48,0,0,0,9.47-9.47c0-5.062-1.507-6.214-9.712-7.814-7.1-1.4-16.872-3.3-16.872-14.3A15.8,15.8,0,0,1,393.777,26.84h1.317c7.557,0,15.252,6.615,15.751,14.918h0a3.148,3.148,0,0,1-3.153,3.138,3.236,3.236,0,0,1-3.164-3.133Z" transform="translate(-183.557 -13.156)" fill="#fff"/>
        <path id="Path_8" data-name="Path 8" d="M453.63,64.416V3.269a3.158,3.158,0,0,1,6.312,0V17.158a15.663,15.663,0,0,1,9.465-3.189h.782a15.8,15.8,0,0,1,15.777,15.777V64.416a3.158,3.158,0,0,1-6.312,0V29.724a9.48,9.48,0,0,0-9.465-9.465h-.782a9.475,9.475,0,0,0-9.465,9.465V64.416a3.158,3.158,0,0,1-6.312,0Z" transform="translate(-220.283 -0.238)" fill="#fff"/>
        <path id="Path_9" data-name="Path 9" d="M530.37,6.684V3.269a3.158,3.158,0,0,1,6.312,0V6.684a3.158,3.158,0,0,1-6.312,0Zm0,57.721V17.091a3.158,3.158,0,0,1,6.312,0V64.415a3.158,3.158,0,0,1-6.312,0Z" transform="translate(-257.548 -0.237)" fill="#fff"/>
        <path id="Path_10" data-name="Path 10" d="M554.9,91.021V42.461A15.792,15.792,0,0,1,570.677,26.69h.694a15.792,15.792,0,0,1,15.777,15.771V64.55a15.8,15.8,0,0,1-15.777,15.8h-.694a15.694,15.694,0,0,1-9.465-3.184V91.052a3.158,3.158,0,0,1-6.312,0Zm6.312-26.471a9.475,9.475,0,0,0,9.465,9.465h.694a9.475,9.475,0,0,0,9.465-9.465V42.461a9.475,9.475,0,0,0-9.465-9.439h-.694a9.48,9.48,0,0,0-9.465,9.465Z" transform="translate(-269.459 -13.083)" fill="#fff"/>
      </g>
    </g>
  </g>
</svg>
